# xmcd
#
# Track frame offsets: 
#        150
#        28548
#        41863
#        55354
#        70725
#        84236
#        97152
#        122668
#        137727
#        156653
#        194911
#        209639
#        223620
#        236675
#        256218
#        271268
#        283289
#        296032
#        310158
#        332300
#
# Disc length: 4583 seconds
#
# Revision: 0
# Processed by: cddbd v1.5.2PL0 Copyright (c) Steve Scherf et al.
# Submitted via: ExactAudioCopyFreeDBPlugin 1.0
#
DISCID=4311e514
DTITLE=Don Kelley Band - Live at Robert's
DYEAR=2013
DGENRE=
TTITLE0=Ghost Riders
TTITLE1=Mental Revenge
TTITLE2=Truck Driving Man
TTITLE3=Get Rhythm
TTITLE4=I Can Help
TTITLE5=Hello Trouble
TTITLE6=The Weight
TTITLE7=The Auctioneer
TTITLE8=Big River
TTITLE9=Ramblin' Man
TTITLE10=Going Down That Road
TTITLE11=Dig A Hole
TTITLE12=Fox on the Run
TTITLE13=Walkin the Dog
TTITLE14=Wasted Dogs
TTITLE15=You Win Again
TTITLE16=Invitation to the Blues
TTITLE17=Hung it Up
TTITLE18=Workin Man Blues
TTITLE19=I've Been Everywhere
EXTD=
EXTT0=
EXTT1=
EXTT2=
EXTT3=
EXTT4=
EXTT5=
EXTT6=
EXTT7=
EXTT8=
EXTT9=
EXTT10=
EXTT11=
EXTT12=
EXTT13=
EXTT14=
EXTT15=
EXTT16=
EXTT17=
EXTT18=
EXTT19=
PLAYORDER=
